<svg xmlns="http://www.w3.org/2000/svg" xmlns:xlink="http://www.w3.org/1999/xlink" width="150" zoomAndPan="magnify" viewBox="0 0 112.5 112.499997" height="150" preserveAspectRatio="xMidYMid meet" version="1.0"><defs><g/><clipPath id="4239ea7a79"><path d="M 11.199219 11.199219 L 100.800781 11.199219 L 100.800781 100.800781 L 11.199219 100.800781 Z M 11.199219 11.199219 " clip-rule="nonzero"/></clipPath><clipPath id="6e501b392b"><path d="M 56 11.199219 C 31.257812 11.199219 11.199219 31.257812 11.199219 56 C 11.199219 80.742188 31.257812 100.800781 56 100.800781 C 80.742188 100.800781 100.800781 80.742188 100.800781 56 C 100.800781 31.257812 80.742188 11.199219 56 11.199219 Z M 56 11.199219 " clip-rule="nonzero"/></clipPath><clipPath id="3a58a8d810"><path d="M 0.199219 0.199219 L 89.800781 0.199219 L 89.800781 89.800781 L 0.199219 89.800781 Z M 0.199219 0.199219 " clip-rule="nonzero"/></clipPath><clipPath id="e36221bb0f"><path d="M 45 0.199219 C 20.257812 0.199219 0.199219 20.257812 0.199219 45 C 0.199219 69.742188 20.257812 89.800781 45 89.800781 C 69.742188 89.800781 89.800781 69.742188 89.800781 45 C 89.800781 20.257812 69.742188 0.199219 45 0.199219 Z M 45 0.199219 " clip-rule="nonzero"/></clipPath><clipPath id="2a9ae03071"><rect x="0" width="90" y="0" height="90"/></clipPath></defs><g clip-path="url(#4239ea7a79)"><g clip-path="url(#6e501b392b)"><g transform="matrix(1, 0, 0, 1, 11, 11)"><g clip-path="url(#2a9ae03071)"><g clip-path="url(#3a58a8d810)"><g clip-path="url(#e36221bb0f)"><path fill="#ff6f61" d="M 0.199219 0.199219 L 89.800781 0.199219 L 89.800781 89.800781 L 0.199219 89.800781 Z M 0.199219 0.199219 " fill-opacity="1" fill-rule="nonzero"/></g></g></g></g></g></g><g fill="#fff9f4" fill-opacity="1"><g transform="translate(22.321886, 64.960551)"><g><path d="M 6.5 -13.359375 C 6.9375 -14.078125 7.570312 -14.660156 8.40625 -15.109375 C 9.25 -15.554688 10.210938 -15.78125 11.296875 -15.78125 C 12.578125 -15.78125 13.734375 -15.453125 14.765625 -14.796875 C 15.804688 -14.148438 16.628906 -13.222656 17.234375 -12.015625 C 17.835938 -10.804688 18.140625 -9.40625 18.140625 -7.8125 C 18.140625 -6.207031 17.835938 -4.796875 17.234375 -3.578125 C 16.628906 -2.359375 15.804688 -1.421875 14.765625 -0.765625 C 13.734375 -0.109375 12.578125 0.21875 11.296875 0.21875 C 10.191406 0.21875 9.226562 0 8.40625 -0.4375 C 7.59375 -0.875 6.957031 -1.453125 6.5 -2.171875 L 6.5 0 L 1.734375 0 L 1.734375 -20.625 L 6.5 -20.625 Z M 13.296875 -7.8125 C 13.296875 -9 12.960938 -9.929688 12.296875 -10.609375 C 11.640625 -11.285156 10.832031 -11.625 9.875 -11.625 C 8.925781 -11.625 8.117188 -11.28125 7.453125 -10.59375 C 6.796875 -9.90625 6.46875 -8.96875 6.46875 -7.78125 C 6.46875 -6.59375 6.796875 -5.65625 7.453125 -4.96875 C 8.117188 -4.28125 8.925781 -3.9375 9.875 -3.9375 C 10.820312 -3.9375 11.628906 -4.28125 12.296875 -4.96875 C 12.960938 -5.664062 13.296875 -6.613281 13.296875 -7.8125 Z M 13.296875 -7.8125 "/></g></g></g><g fill="#fff9f4" fill-opacity="1"><g transform="translate(39.853381, 64.960551)"><g><path d="M 6.5 -12.96875 C 7.050781 -13.820312 7.742188 -14.492188 8.578125 -14.984375 C 9.421875 -15.472656 10.351562 -15.71875 11.375 -15.71875 L 11.375 -10.671875 L 10.0625 -10.671875 C 8.875 -10.671875 7.984375 -10.414062 7.390625 -9.90625 C 6.796875 -9.394531 6.5 -8.5 6.5 -7.21875 L 6.5 0 L 1.734375 0 L 1.734375 -15.546875 L 6.5 -15.546875 Z M 6.5 -12.96875 "/></g></g></g><g fill="#fff9f4" fill-opacity="1"><g transform="translate(50.38893, 64.960551)"><g><path d="M 4.125 -17.171875 C 3.289062 -17.171875 2.609375 -17.414062 2.078125 -17.90625 C 1.546875 -18.394531 1.28125 -19.003906 1.28125 -19.734375 C 1.28125 -20.472656 1.546875 -21.085938 2.078125 -21.578125 C 2.609375 -22.078125 3.289062 -22.328125 4.125 -22.328125 C 4.945312 -22.328125 5.617188 -22.078125 6.140625 -21.578125 C 6.671875 -21.085938 6.9375 -20.472656 6.9375 -19.734375 C 6.9375 -19.003906 6.671875 -18.394531 6.140625 -17.90625 C 5.617188 -17.414062 4.945312 -17.171875 4.125 -17.171875 Z M 6.5 -15.546875 L 6.5 0 L 1.734375 0 L 1.734375 -15.546875 Z M 6.5 -15.546875 "/></g></g></g><g fill="#fff9f4" fill-opacity="1"><g transform="translate(57.217459, 64.960551)"><g><path d="M 6.5 -20.625 L 6.5 0 L 1.734375 0 L 1.734375 -20.625 Z M 6.5 -20.625 "/></g></g></g><g fill="#fff9f4" fill-opacity="1"><g transform="translate(64.045989, 64.960551)"><g><path d="M 6.5 -20.625 L 6.5 0 L 1.734375 0 L 1.734375 -20.625 Z M 6.5 -20.625 "/></g></g></g><g fill="#fff9f4" fill-opacity="1"><g transform="translate(70.874518, 64.960551)"><g><path d="M 17.09375 -15.546875 L 17.09375 0 L 12.328125 0 L 12.328125 -2.125 C 11.835938 -1.4375 11.175781 -0.878906 10.34375 -0.453125 C 9.519531 -0.0351562 8.609375 0.171875 7.609375 0.171875 C 6.421875 0.171875 5.367188 -0.09375 4.453125 -0.625 C 3.546875 -1.15625 2.84375 -1.921875 2.34375 -2.921875 C 1.84375 -3.929688 1.59375 -5.113281 1.59375 -6.46875 L 1.59375 -15.546875 L 6.328125 -15.546875 L 6.328125 -7.109375 C 6.328125 -6.066406 6.59375 -5.253906 7.125 -4.671875 C 7.664062 -4.097656 8.394531 -3.8125 9.3125 -3.8125 C 10.238281 -3.8125 10.972656 -4.097656 11.515625 -4.671875 C 12.054688 -5.253906 12.328125 -6.066406 12.328125 -7.109375 L 12.328125 -15.546875 Z M 17.09375 -15.546875 "/></g></g></g></svg>